<?xml version="1.0" standalone="no"?>
<!DOCTYPE svg PUBLIC "-//W3C//DTD SVG 20010904//EN"
 "http://www.w3.org/TR/2001/REC-SVG-20010904/DTD/svg10.dtd">
<svg version="1.0" xmlns="http://www.w3.org/2000/svg"
 width="168.000000pt" height="125.000000pt" viewBox="0 0 168.000000 125.000000"
 preserveAspectRatio="xMidYMid meet">

<g transform="translate(0.000000,125.000000) scale(0.100000,-0.100000)"
fill="#000000" stroke="none">
<path d="M609 1213 c-1 -10 -2 -31 -3 -48 l-1 -30 -102 -3 -103 -3 0 -49 0
-50 -50 0 -50 0 0 -49 0 -50 -47 -3 -48 -3 -3 -47 -3 -47 -47 -3 -47 -3 -3
-147 -3 -147 -47 -3 -47 -3 -3 -147 -3 -148 51 0 50 0 0 150 0 150 250 0 250
0 0 -49 0 -50 -47 -3 -48 -3 0 -45 0 -45 -50 -5 -50 -5 -3 -47 -3 -47 -147 -3
-147 -3 -3 -47 -3 -48 200 0 c222 0 204 6 203 -68 l0 -32 248 0 249 0 3 48 3
47 253 3 252 2 0 50 0 50 50 0 50 0 0 100 0 100 35 0 35 0 0 50 0 50 -34 0
c-34 0 -35 1 -38 48 l-3 47 -47 3 -47 3 -3 147 -3 147 -47 3 -48 3 0 -150 0
-151 -202 -2 -203 -3 -3 -47 -3 -47 -47 -3 -47 -3 -3 -47 -3 -48 -50 0 -50 0
3 -52 3 -53 48 -3 47 -3 0 -50 0 -49 50 0 50 0 0 -45 0 -45 -245 0 -245 0 0
94 0 95 48 3 47 3 3 47 3 47 47 3 47 3 0 50 0 50 -47 3 -47 3 -3 47 -3 47
-202 3 -203 2 0 100 0 100 50 0 50 0 0 50 0 50 50 0 50 0 0 50 0 50 100 0 100
0 0 50 0 50 155 0 155 0 0 -50 0 -50 45 0 45 0 0 50 0 50 105 0 105 0 0 -50 0
-50 50 0 50 0 0 -51 0 -50 48 3 47 3 -2 40 c-1 22 -2 43 -2 48 -1 4 -21 7 -45
7 l-45 0 -3 48 -3 47 -47 3 -47 3 -3 47 -3 47 -297 3 c-279 2 -298 1 -299 -15z"/>
<path d="M800 880 l0 -150 50 0 50 0 0 -50 0 -50 56 0 55 0 -3 48 -3 47 -47 3
-48 3 0 67 c0 37 -3 104 -7 150 l-6 82 -48 0 -49 0 0 -150z"/>
<path d="M1210 830 l0 -101 48 3 47 3 0 95 0 95 -47 3 -48 3 0 -101z"/>
</g>
</svg>
